<svg width="32" height="32" viewBox="0 0 32 32" fill="none" xmlns="http://www.w3.org/2000/svg">
<g clip-path="url(#clip0_11_384)">
<rect width="32" height="32" fill="#AB183D"/>
<path d="M15.9984 13.1758C15.2483 13.1758 14.5288 13.4733 13.9984 14.0028C13.4679 14.5324 13.1699 15.2506 13.1699 15.9996C13.1699 16.7485 13.4679 17.4667 13.9984 17.9963C14.5288 18.5258 15.2483 18.8233 15.9984 18.8233C16.7486 18.8233 17.468 18.5258 17.9985 17.9963C18.5289 17.4667 18.8269 16.7485 18.8269 15.9996C18.8269 15.2506 18.5289 14.5324 17.9985 14.0028C17.468 13.4733 16.7486 13.1758 15.9984 13.1758Z" fill="white"/>
<path fill-rule="evenodd" clip-rule="evenodd" d="M11.4464 8.25108C14.4716 7.91631 17.5246 7.91631 20.5498 8.25108C22.2025 8.43527 23.5349 9.73421 23.729 11.3903C24.0877 14.4527 24.0877 17.5464 23.729 20.6088C23.5349 22.2648 22.2025 23.5638 20.5506 23.7489C17.5251 24.0837 14.4719 24.0837 11.4464 23.7489C9.79366 23.5638 8.46123 22.2648 8.26715 20.6097C7.90835 17.547 7.90835 14.453 8.26715 11.3903C8.46123 9.73421 9.79366 8.43527 11.4464 8.25108ZM20.3496 10.7864C20.1188 10.7864 19.8974 10.8779 19.7342 11.0409C19.571 11.2038 19.4793 11.4248 19.4793 11.6553C19.4793 11.8857 19.571 12.1067 19.7342 12.2696C19.8974 12.4326 20.1188 12.5241 20.3496 12.5241C20.5804 12.5241 20.8018 12.4326 20.965 12.2696C21.1282 12.1067 21.2199 11.8857 21.2199 11.6553C21.2199 11.4248 21.1282 11.2038 20.965 11.0409C20.8018 10.8779 20.5804 10.7864 20.3496 10.7864ZM11.8641 15.9995C11.8641 14.905 12.2997 13.8552 13.0749 13.0813C13.8502 12.3073 14.9017 11.8725 15.9981 11.8725C17.0945 11.8725 18.1459 12.3073 18.9212 13.0813C19.6965 13.8552 20.132 14.905 20.132 15.9995C20.132 17.0941 19.6965 18.1438 18.9212 18.9178C18.1459 19.6918 17.0945 20.1266 15.9981 20.1266C14.9017 20.1266 13.8502 19.6918 13.0749 18.9178C12.2997 18.1438 11.8641 17.0941 11.8641 15.9995Z" fill="white"/>
</g>
<defs>
<clipPath id="clip0_11_384">
<rect width="32" height="32" rx="4" fill="white"/>
</clipPath>
</defs>
</svg>
