<svg width="32" height="32" viewBox="0 0 32 32" fill="none" xmlns="http://www.w3.org/2000/svg">
<g clip-path="url(#clip0_11_380)">
<rect width="32" height="32" fill="#AB183D"/>
<path d="M11.3578 9.66741C11.3576 10.1094 11.1805 10.5332 10.8655 10.8456C10.5505 11.158 10.1233 11.3334 9.67807 11.3331C9.2328 11.3329 8.80585 11.1571 8.49115 10.8444C8.17645 10.5317 7.99978 10.1077 8 9.66574C8.00022 9.22374 8.17732 8.79993 8.49233 8.48754C8.80735 8.17515 9.23447 7.99978 9.67975 8C10.125 8.00022 10.552 8.17602 10.8667 8.48872C11.1814 8.80142 11.358 9.2254 11.3578 9.66741ZM11.4082 12.5672H8.05037V23H11.4082V12.5672ZM16.7135 12.5672H13.3725V23H16.68V17.5253C16.68 14.4755 20.6842 14.1922 20.6842 17.5253V23H24V16.392C24 11.2507 18.0735 11.4423 16.68 13.9672L16.7135 12.5672Z" fill="white"/>
</g>
<defs>
<clipPath id="clip0_11_380">
<rect width="32" height="32" rx="4" fill="white"/>
</clipPath>
</defs>
</svg>
